<?xml version="1.0" encoding="UTF-8" standalone="no"?>
<!-- Generator: Adobe Illustrator 24.2.1, SVG Export Plug-In . SVG Version: 6.00 Build 0)  -->

<svg
   xmlns:dc="http://purl.org/dc/elements/1.1/"
   xmlns:cc="http://creativecommons.org/ns#"
   xmlns:rdf="http://www.w3.org/1999/02/22-rdf-syntax-ns#"
   xmlns:svg="http://www.w3.org/2000/svg"
   xmlns="http://www.w3.org/2000/svg"
   xmlns:sodipodi="http://sodipodi.sourceforge.net/DTD/sodipodi-0.dtd"
   xmlns:inkscape="http://www.inkscape.org/namespaces/inkscape"
   version="1.1"
   id="Calque_1"
   x="0px"
   y="0px"
   viewBox="0 0 712.44099 623.38241"
   xml:space="preserve"
   sodipodi:docname="logo_big_colored.svg"
   width="712.44098"
   height="623.38239"
   inkscape:version="0.92.5 (2060ec1f9f, 2020-04-08)"><metadata
   id="metadata81"><rdf:RDF><cc:Work
       rdf:about=""><dc:format>image/svg+xml</dc:format><dc:type
         rdf:resource="http://purl.org/dc/dcmitype/StillImage" /></cc:Work></rdf:RDF></metadata><defs
   id="defs79" /><sodipodi:namedview
   pagecolor="#ffffff"
   bordercolor="#666666"
   borderopacity="1"
   objecttolerance="10"
   gridtolerance="10"
   guidetolerance="10"
   inkscape:pageopacity="0"
   inkscape:pageshadow="2"
   inkscape:window-width="640"
   inkscape:window-height="480"
   id="namedview77"
   showgrid="false"
   inkscape:zoom="0.16651145"
   inkscape:cx="351.31081"
   inkscape:cy="313.49974"
   inkscape:window-x="72"
   inkscape:window-y="27"
   inkscape:window-maximized="0"
   inkscape:current-layer="Calque_1" />
<style
   type="text/css"
   id="style2">
	.st0{fill:#020783;}
	.st1{fill:#5CB854;}
	.st2{fill:#FDFDFE;}
</style>
<g
   id="g74"
   transform="translate(-782.54917,-398.77735)">
	<path
   class="st0"
   d="m 1017.5,806.67 c -38.94,0.05 -71.05,-31.93 -71.28,-70.99 -0.22,-38.73 31.93,-71.31 71,-71.17 39.98,0.15 69.77,30.73 71.33,67.7 1.77,42.13 -31.41,74.13 -71.05,74.46 z m -29.61,-71.41 c -0.07,16.81 12.8,30.02 29.33,30.1 16.4,0.08 29.96,-13.18 30.22,-29.55 0.25,-15.98 -13.41,-30.07 -29.7,-30.17 -19.13,-0.12 -31.02,16.83 -29.85,29.62 z"
   id="path4"
   inkscape:connector-curvature="0"
   style="fill:#020783" />
	<path
   class="st0"
   d="m 1323.53,806.69 c -16.12,0 -31.27,-0.07 -46.41,0.07 -2.48,0.02 -3.62,-1.46 -4.79,-2.98 -7.38,-9.61 -14.68,-19.27 -22.02,-28.92 -1.25,-1.64 -1.84,-3.4 -1.82,-5.54 0.09,-10.83 0.14,-21.65 -0.03,-32.48 -0.04,-2.79 0.64,-3.91 3.54,-3.64 2.48,0.22 5,0.16 7.49,-0.02 7.73,-0.57 13.76,-6.68 14.22,-14.24 0.42,-6.97 -5.21,-13.48 -12.73,-14.96 -4.31,-0.85 -8.64,-0.19 -12.95,-0.54 -3.08,-0.25 -4.02,0.87 -3.97,3.95 0.17,10.49 0.06,20.99 0.06,31.48 0,21.15 -0.08,42.31 0.08,63.46 0.03,3.47 -0.89,4.53 -4.42,4.45 -10.32,-0.23 -20.65,-0.2 -30.98,-0.01 -3.04,0.05 -3.92,-0.76 -3.92,-3.87 0.1,-44.97 0.07,-89.94 0.07,-134.91 0,-1.84 -0.35,-3.67 2.6,-3.6 19.8,0.5 39.67,-1.27 59.41,0.91 25.97,2.87 46.85,28.3 45.71,54.36 -0.71,16.21 -7.12,29.51 -19.35,39.93 -2.8,2.38 -2.57,3.69 -0.58,6.26 9.87,12.75 19.56,25.63 29.31,38.47 0.36,0.48 0.65,1.02 1.48,2.37 z"
   id="path6"
   inkscape:connector-curvature="0"
   style="fill:#020783" />
	<path
   class="st0"
   d="m 1361.56,806.69 c -11.23,0 -20.56,-0.12 -29.88,0.07 -3.13,0.06 -3.95,-1 -3.9,-4 0.16,-10.32 0.2,-20.65 -0.02,-30.98 -0.07,-3.49 0.93,-4.51 4.45,-4.47 16.49,0.18 32.98,0.05 49.47,0.11 3.28,0.01 6.02,-0.72 7.2,-4.08 1.52,-4.31 -1.42,-7.88 -6.58,-8.14 -7.8,-0.39 -15.63,0.73 -23.4,-0.74 -22.33,-4.23 -37.43,-21.47 -38.34,-43.89 -0.83,-20.46 13.67,-39.1 34.88,-44.74 3.71,-0.99 7.51,-1.41 11.35,-1.41 16.82,-0.01 33.65,0.12 50.47,-0.11 3.88,-0.05 4.68,1.15 4.58,4.78 -0.25,9.99 -0.23,19.99 -0.01,29.97 0.08,3.42 -0.78,4.54 -4.37,4.5 -15.49,-0.2 -30.98,-0.09 -46.47,-0.08 -1.33,0 -2.68,-0.1 -3.99,0.04 -3.78,0.41 -6.84,1.78 -6.96,6.24 -0.1,3.72 2.73,6.27 7.39,6.39 5.49,0.14 10.99,0.05 16.49,-0.01 22.67,-0.24 42.42,17.51 44.69,41.34 1.96,20.61 -11.18,41.61 -33.63,47.55 -11.65,3.07 -23.56,1.02 -33.42,1.66 z"
   id="path8"
   inkscape:connector-curvature="0"
   style="fill:#020783" />
	<path
   class="st0"
   d="m 1200.65,712.77 c 0,14.98 1.14,30.06 -0.28,44.9 -1.97,20.66 -13.06,36.21 -32.4,44.43 -34.83,14.81 -72.82,-8.56 -75.01,-46.32 -1.7,-29.42 -0.26,-58.92 -0.63,-88.38 -0.04,-3.11 1.66,-3.01 3.79,-3 10.66,0.04 21.32,0.18 31.97,-0.07 3.51,-0.08 4.01,1.21 4,4.27 -0.1,27.31 -0.06,54.61 -0.06,81.92 0,10.21 5.46,16.7 14.22,16.83 9.11,0.14 15.25,-6.25 15.29,-16.54 0.12,-26.97 0.18,-53.95 -0.09,-80.92 -0.05,-4.8 1.44,-5.72 5.8,-5.58 9.65,0.31 19.32,0.27 28.97,0.01 3.63,-0.1 4.38,1.11 4.34,4.49 -0.17,14.65 -0.07,29.3 -0.07,43.96 0.05,0 0.1,0 0.16,0 z"
   id="path10"
   inkscape:connector-curvature="0"
   style="fill:#020783" />
	<path
   class="st0"
   d="m 918.59,755.27 c 0,15.49 -0.1,30.98 0.07,46.47 0.04,3.72 -0.65,5.24 -4.86,5.08 -9.65,-0.36 -19.32,-0.32 -28.98,-0.02 -4.06,0.13 -5.28,-0.86 -5.25,-5.12 0.2,-30.81 0.02,-61.63 0.21,-92.44 0.03,-4.48 -0.96,-6.17 -5.74,-5.88 -7.14,0.43 -14.32,0.02 -21.48,0.16 -2.58,0.05 -3.48,-0.74 -3.45,-3.39 0.12,-10.83 0.13,-21.65 0,-32.48 -0.03,-2.78 1.12,-3.29 3.57,-3.28 30.98,0.06 61.97,0.06 92.95,0 2.54,-0.01 3.53,0.65 3.5,3.36 -0.13,10.83 -0.13,21.65 0,32.48 0.03,2.74 -1.01,3.36 -3.51,3.32 -7.16,-0.13 -14.34,0.21 -21.48,-0.14 -4.29,-0.21 -5.74,0.86 -5.66,5.43 0.3,15.47 0.11,30.96 0.11,46.45 z"
   id="path12"
   inkscape:connector-curvature="0"
   style="fill:#020783" />
	<path
   class="st0"
   d="m 1262.01,589.77 c 9.83,-8.63 18.78,-16.49 27.74,-24.35 17.39,-15.26 34.99,-30.3 52.08,-45.91 6.88,-6.28 10.83,-15.07 16.01,-22.77 15.85,-23.58 32.68,-46.42 50.42,-68.61 2.17,-2.72 3.41,-2.76 6.12,-0.66 18.26,14.12 36.66,28.06 55.09,41.96 2.35,1.77 2.97,2.78 0.56,5.2 -20.59,20.63 -41.64,40.77 -63.55,60 -2.65,2.33 -5.68,1.52 -8.53,1.15 -13.18,-1.75 -26.34,-3.61 -39.48,-5.64 -3.12,-0.48 -5.37,0.33 -7.67,2.36 -19.96,17.63 -40.04,35.11 -59.92,52.83 -3.42,3.05 -6.68,4.93 -11.45,4.54 -5.41,-0.44 -10.85,-0.1 -17.42,-0.1 z m 137.17,-57.21 c 3.13,0.63 5.36,-0.76 7.61,-2.78 15.48,-13.92 30.71,-28.12 45.73,-42.54 3.1,-2.98 2.57,-4.25 -0.6,-6.62 -15.72,-11.75 -31.33,-23.65 -46.79,-35.75 -3.05,-2.39 -4.19,-1.81 -6.39,1.01 -16.87,21.65 -32.5,44.16 -47.44,67.16 -1.32,2.03 -5.32,4.14 -1.51,7.42 2.33,2.01 3.44,5.49 6.97,6.01 14.13,2.06 28.27,4.06 42.42,6.09 z"
   id="path14"
   inkscape:connector-curvature="0"
   style="fill:#020783" />
	<path
   class="st0"
   d="m 1015.08,589.77 c -7.33,0 -13.8,-0.08 -20.27,0.05 -2.23,0.04 -3.72,-0.92 -5.27,-2.29 -20.86,-18.36 -41.78,-36.65 -62.6,-55.05 -2.33,-2.06 -4.56,-2.79 -7.66,-2.31 -12.98,1.99 -26,3.67 -38.98,5.64 -4.36,0.66 -7.85,-0.04 -11.34,-3.16 -20.86,-18.66 -41.16,-37.9 -60.89,-57.75 -2.81,-2.83 -1.68,-3.84 0.78,-5.7 18.04,-13.62 36.06,-27.27 53.89,-41.15 3.34,-2.6 4.96,-2.43 7.61,0.9 21.11,26.56 41.03,53.97 59.34,82.52 6.84,10.67 17.23,17.48 26.3,25.69 19,17.2 38.45,33.9 57.71,50.82 0.36,0.3 0.6,0.75 1.38,1.79 z M 877.8,532.75 c 11.65,-1.75 23.28,-3.68 34.96,-5.18 5.81,-0.74 11.47,-0.91 15.07,-6.75 1.27,-2.07 1.86,-3.21 0.37,-5.48 -15.66,-23.88 -31.95,-47.3 -49.42,-69.9 -1.88,-2.43 -2.99,-2.9 -5.66,-0.82 -15.74,12.25 -31.57,24.38 -47.58,36.28 -3.21,2.39 -3.14,3.5 -0.42,6.13 15.17,14.72 30.73,29.02 46.41,43.2 1.85,1.69 3.68,2.77 6.27,2.52 z"
   id="path16"
   inkscape:connector-curvature="0"
   style="fill:#020783" />
	<path
   class="st0"
   d="m 953.29,881.35 c -23.65,20.72 -45.97,40.65 -68.95,59.84 -14.17,11.83 -28.21,23.82 -42.28,35.75 -0.73,0.62 -1.96,1.81 -1.79,2.14 2.56,5 -2.03,6.54 -4.42,8.69 -11.61,10.47 -23.41,20.73 -35.18,31.02 -5.26,4.59 -6.91,4.33 -11.49,-0.7 -9.87,-10.85 -8,-10.34 0.86,-18.13 11.62,-10.22 23.25,-20.44 34.91,-30.6 1.06,-0.92 2.48,-2.75 3.77,-1.69 3.13,2.56 4.61,0.19 6.49,-1.53 30.48,-27.81 60.86,-55.75 92.04,-82.8 1.1,-0.96 2.13,-2.03 3.85,-2.01 6.94,0.06 13.88,0.02 22.19,0.02 z M 837.13,981.6 c -2.04,-2.32 -4.16,-4.27 -5.71,-6.59 -2.47,-3.7 -4.42,-2.92 -7.31,-0.31 -10.22,9.26 -20.83,18.1 -30.98,27.42 -8.94,8.21 -9.13,4.32 -0.39,14.52 1.55,1.81 2.72,1.87 4.49,0.3 12.7,-11.23 25.46,-22.39 38.2,-33.58 0.58,-0.49 1.07,-1.1 1.7,-1.76 z"
   id="path18"
   inkscape:connector-curvature="0"
   style="fill:#020783" />
	<path
   class="st0"
   d="m 1324.53,881.35 c 8.13,0 14.78,0.15 21.41,-0.08 2.61,-0.09 3.88,1.54 5.47,2.9 31.32,26.91 61.46,55.14 92.17,82.74 1.39,1.25 2.51,3.36 4.78,1.05 1.29,-1.31 2.5,-0.21 3.48,0.65 13.79,12.05 27.55,24.13 41.31,36.2 0.25,0.22 0.52,0.45 0.66,0.74 3.69,7.6 -4.16,9.76 -6.91,14.25 -1.9,3.1 -5.15,2.96 -7.79,0.66 -13.56,-11.78 -27.04,-23.65 -40.5,-35.53 -0.83,-0.73 -2.07,-2.3 -1.81,-2.76 2.5,-4.52 -1.76,-5.85 -3.83,-7.63 -25.37,-21.76 -50.92,-43.3 -76.33,-65.01 -10.46,-8.93 -20.68,-18.13 -32.11,-28.18 z m 167.78,127.09 c -1.35,-1.08 -2.55,-1.97 -3.67,-2.95 -10.4,-9.07 -20.86,-18.08 -31.17,-27.26 -7.94,-7.07 -7.76,-7.08 -14.57,0.59 -2.03,2.29 -1.95,3.45 0.39,5.48 11.84,10.2 23.47,20.65 35.27,30.9 1.46,1.27 2.99,4.33 5.23,2.55 3.07,-2.47 5.41,-5.83 8.52,-9.31 z"
   id="path20"
   inkscape:connector-curvature="0"
   style="fill:#020783" />
	<path
   class="st1"
   d="m 861.61,418.81 c 0.01,1.56 -1.23,2.07 -2.09,2.72 -18.83,14.41 -37.7,28.76 -56.53,43.16 -1.64,1.25 -2.82,1.77 -4.48,-0.2 -4.61,-5.44 -9.41,-10.74 -14.23,-16 -2.53,-2.76 -1.98,-4.71 0.88,-6.86 18.15,-13.7 36.26,-27.45 54.29,-41.32 2.9,-2.23 4.79,-2.06 7.08,0.73 4.32,5.27 8.9,10.32 13.36,15.48 0.63,0.75 1.18,1.58 1.72,2.29 z"
   id="path22"
   inkscape:connector-curvature="0"
   style="fill:#5cb854" />
	<path
   class="st1"
   d="m 1494.99,445.35 c -0.02,1.28 -0.82,2.16 -1.58,3.03 -4.69,5.37 -9.48,10.66 -14.09,16.1 -1.63,1.93 -2.79,1.51 -4.52,0.19 -18.95,-14.52 -37.93,-29 -56.96,-43.43 -1.73,-1.31 -1.99,-2.33 -0.51,-3.98 4.86,-5.46 9.72,-10.92 14.41,-16.51 2.29,-2.73 4.31,-2.29 6.79,-0.4 17.79,13.6 35.62,27.13 53.4,40.73 1.4,1.07 3.08,2.11 3.06,4.27 z"
   id="path24"
   inkscape:connector-curvature="0"
   style="fill:#5cb854" />
	<path
   class="st0"
   d="m 1140.4,821.16 c 12.62,0.03 22.41,10.06 22.4,22.94 -0.01,11.84 -10.24,21.94 -22.36,22.06 -12.35,0.12 -23.12,-10.6 -22.87,-22.76 0.26,-12.29 10.51,-22.27 22.83,-22.24 z m 16.46,22.65 c 0.11,-9.18 -6.95,-16.49 -16.11,-16.7 -9.4,-0.21 -17.05,7.02 -17.22,16.29 -0.17,8.99 7.73,16.94 16.81,16.92 8.98,-0.02 16.42,-7.46 16.52,-16.51 z"
   id="path26"
   inkscape:connector-curvature="0"
   style="fill:#020783" />
	<path
   class="st0"
   d="m 1278.63,821.16 c 12.39,0.04 22.54,10.16 22.52,22.47 -0.02,12.26 -10.13,22.37 -22.51,22.53 -12.44,0.16 -22.65,-10.1 -22.63,-22.73 0.01,-12.3 10.18,-22.31 22.62,-22.27 z m -16.66,22.44 c 0.01,9.1 7.3,16.58 16.28,16.71 9.15,0.13 16.94,-7.55 16.93,-16.7 0,-9.36 -7.44,-16.62 -16.92,-16.52 -9.25,0.1 -16.3,7.24 -16.29,16.51 z"
   id="path28"
   inkscape:connector-curvature="0"
   style="fill:#020783" />
	<path
   class="st0"
   d="m 1262.36,627.48 c -0.45,-12 10.28,-22.43 22.6,-22.27 12.28,0.15 22.77,10.64 22.53,22.65 -0.25,12.24 -10.66,22.38 -22.91,22.33 -13.87,-0.05 -23.22,-12.76 -22.22,-22.71 z m 5.83,0.21 c -0.02,9.31 7.38,16.66 16.74,16.61 8.88,-0.04 16.54,-7.59 16.73,-16.47 0.18,-8.7 -8.03,-17.02 -16.81,-17.04 -9.08,-0.01 -16.65,7.67 -16.66,16.9 z"
   id="path30"
   inkscape:connector-curvature="0"
   style="fill:#020783" />
	<path
   class="st0"
   d="m 887.22,834.25 c -5.01,4.48 -9.18,7.81 -12.84,11.64 -2.16,2.26 -3.4,1.67 -5.23,-0.06 -3.93,-3.71 -7.98,-7.3 -12.99,-11.85 0,9.84 0.05,18.4 -0.04,26.95 -0.02,1.82 1.25,4.54 -2.68,4.44 -3.9,-0.11 -2.51,-2.86 -2.52,-4.62 -0.11,-12.75 -0.06,-25.5 -0.06,-39.22 6.22,5.64 11.84,10.49 17.15,15.66 2.72,2.65 4.43,3.33 7.49,0.13 5.14,-5.37 10.94,-10.11 16.6,-15.23 1.48,1.68 0.8,3.39 0.8,4.9 0.07,11.49 0.03,22.98 0.05,34.47 0,2.08 0.21,3.93 -2.93,3.93 -3.27,0 -2.8,-2.04 -2.8,-4.01 0,-8.61 0,-17.21 0,-27.13 z"
   id="path32"
   inkscape:connector-curvature="0"
   style="fill:#020783" />
	<path
   class="st0"
   d="m 1389.17,620.65 c 0,8.04 -0.01,16.32 0.01,24.6 0,2.16 0.47,4.28 -3.08,4.21 -3.16,-0.06 -2.91,-1.82 -2.9,-3.89 0.02,-12.66 0.01,-25.31 0.02,-37.97 0,-0.29 0.14,-0.59 0.33,-1.36 9.49,9.45 18.81,18.73 29.25,29.12 0,-9.29 -0.05,-17.04 0.04,-24.79 0.02,-1.85 -1.19,-4.51 2.7,-4.44 3.94,0.07 2.49,2.84 2.51,4.59 0.11,12.43 0.06,24.86 0.06,36.91 -9.66,-9.01 -19.28,-17.97 -28.94,-26.98 z"
   id="path34"
   inkscape:connector-curvature="0"
   style="fill:#020783" />
	<path
   class="st0"
   d="m 1083.69,864.81 c -4.15,1.36 -6.35,0.07 -7.48,-3.37 -1.89,-5.77 -6.41,-10.54 -6.29,-17.09 0.04,-2.03 0.18,-3.19 2.68,-3.69 3.56,-0.72 6.01,-3.15 5.58,-7.11 -0.45,-4.12 -3.41,-5.85 -7.24,-6.24 -10.31,-1.04 -10.31,-1.02 -10.31,9.45 0,8.32 -0.01,16.63 0.01,24.95 0.01,1.93 0.12,3.58 -2.73,3.56 -2.76,-0.02 -2.8,-1.51 -2.79,-3.53 0.04,-12.14 0.1,-24.28 -0.04,-36.42 -0.03,-2.6 0.63,-3.56 3.3,-3.44 4.65,0.2 9.32,-0.05 13.96,0.2 5.54,0.31 10.13,4.12 11.28,8.93 1.24,5.24 -0.64,10.45 -5.52,13.26 -2.77,1.59 -2.67,3.04 -1.46,5.45 2.42,4.89 4.63,9.88 7.05,15.09 z"
   id="path36"
   inkscape:connector-curvature="0"
   style="fill:#020783" />
	<path
   class="st0"
   d="m 1186.42,648.92 c -4.2,1.33 -6.4,0 -7.61,-3.67 -1.8,-5.46 -5.91,-10.04 -6.09,-16.15 -0.07,-2.32 -0.04,-3.95 2.98,-4.53 3.68,-0.71 5.83,-3.53 5.14,-7.32 -0.69,-3.82 -3.26,-5.76 -7.48,-5.77 -10.15,-0.03 -10.15,-0.16 -10.15,10.11 0,7.99 0.01,15.97 -0.01,23.96 0,1.89 0.67,4 -2.74,3.89 -3.31,-0.11 -2.71,-2.18 -2.71,-4.09 -0.02,-11.98 0.06,-23.96 -0.06,-35.93 -0.03,-2.56 0.59,-3.56 3.29,-3.42 4.65,0.24 9.32,0.01 13.96,0.24 5.63,0.29 9.58,3.4 11.13,8.37 1.54,4.92 0.17,10.17 -4.5,13.05 -3.69,2.27 -3.29,4.35 -1.67,7.48 2.3,4.4 4.27,8.97 6.52,13.78 z"
   id="path38"
   inkscape:connector-curvature="0"
   style="fill:#020783" />
	<path
   class="st0"
   d="m 896.74,648.86 c -4.86,1.67 -7.08,-0.33 -8.25,-4.3 -0.92,-3.11 -2.92,-4.45 -6.34,-4.05 -2.96,0.34 -6.01,0.31 -8.97,0.02 -5.56,-0.55 -10.01,0.23 -11.8,6.59 -1.05,3.74 -4.31,1.84 -7.39,2.19 7.42,-14.61 14.58,-28.72 22.24,-43.81 7.1,15.03 13.79,29.18 20.51,43.36 z m -20.63,-30.72 c -3.06,6.17 -5.58,11.24 -8.41,16.94 4.82,0 8.77,-0.06 12.73,0.02 2.56,0.06 3.34,-0.59 2.04,-3.16 -2.09,-4.13 -3.9,-8.4 -6.36,-13.8 z"
   id="path40"
   inkscape:connector-curvature="0"
   style="fill:#020783" />
	<path
   class="st0"
   d="m 1197.19,843.51 c 0,-6.15 0.12,-12.29 -0.06,-18.44 -0.07,-2.47 0.72,-3.19 3.09,-3.07 3.48,0.18 6.98,-0.06 10.46,0.1 6.96,0.32 12.18,5.44 12.31,11.88 0.13,6.62 -5.21,12.01 -12.29,12.39 -8.01,0.43 -8.01,0.43 -8.01,8.32 0,2.33 0,4.65 0,6.98 0,1.84 0.3,3.63 -2.61,3.7 -3.19,0.07 -2.91,-1.88 -2.9,-3.92 0.02,-5.98 0.01,-11.96 0.01,-17.94 z m 10.31,-2.44 c 6.15,0.03 9.63,-2.48 9.58,-6.92 -0.05,-4.52 -3.29,-6.47 -9.68,-6.89 -4.37,-0.29 -5.41,1.71 -4.63,5.21 0.72,3.24 -3.15,9.25 4.73,8.6 z"
   id="path42"
   inkscape:connector-curvature="0"
   style="fill:#020783" />
	<path
   class="st0"
   d="m 959.78,606.69 c 3.94,-1.16 6.29,-0.7 7.97,3.41 3.37,8.25 7.42,16.22 11.57,25.12 4.08,-8.79 7.74,-16.71 11.42,-24.62 2.17,-4.67 2.19,-4.66 8.1,-4.06 -6.36,14.12 -12.67,28.15 -19.51,43.33 -6.78,-14.95 -13.13,-28.99 -19.55,-43.18 z"
   id="path44"
   inkscape:connector-curvature="0"
   style="fill:#020783" />
	<path
   class="st0"
   d="m 1335.43,843.08 c 0,-5.98 0.11,-11.95 -0.05,-17.93 -0.06,-2.34 0.56,-3.15 2.99,-3.19 2.68,-0.04 2.86,1.25 2.84,3.36 -0.08,9.96 0.23,19.93 -0.15,29.87 -0.16,4.23 1.31,5.12 5.04,4.81 3.3,-0.28 6.64,-0.02 9.95,-0.07 1.69,-0.03 2.82,0.17 2.74,2.38 -0.08,2.09 -0.7,2.96 -2.91,2.92 -5.81,-0.11 -11.62,-0.14 -17.43,0.01 -2.52,0.07 -3.1,-1 -3.07,-3.24 0.1,-6.3 0.05,-12.61 0.05,-18.92 z"
   id="path46"
   inkscape:connector-curvature="0"
   style="fill:#020783" />
	<path
   class="st0"
   d="m 1002.81,846.3 c 0,-4.65 -0.21,-9.31 0.07,-13.95 0.23,-3.73 -0.63,-5.71 -4.84,-5.03 -1.78,0.29 -3.66,-0.06 -5.47,0.07 -2.25,0.17 -2.77,-0.86 -2.81,-2.93 -0.04,-2.15 1,-2.44 2.74,-2.43 8.97,0.04 17.94,0.06 26.91,-0.01 2.03,-0.02 2.5,0.8 2.43,2.68 -0.06,1.83 -0.54,2.89 -2.56,2.67 -0.16,-0.02 -0.33,-0.01 -0.5,0 -3.11,0.23 -7.22,-1.36 -9.09,0.65 -2.24,2.4 -0.7,6.64 -0.76,10.07 -0.13,7.47 0.03,14.95 -0.09,22.42 -0.03,1.97 1.31,4.82 -2.83,4.87 -4.38,0.06 -3.13,-2.93 -3.18,-5.13 -0.1,-4.65 -0.02,-9.3 -0.02,-13.95 z"
   id="path48"
   inkscape:connector-curvature="0"
   style="fill:#020783" />
	<path
   class="st0"
   d="m 1081.53,627.86 c 0,6.15 -0.03,12.29 0.02,18.44 0.01,1.89 -0.24,3.16 -2.67,3.1 -2.16,-0.05 -2.89,-0.82 -2.88,-2.94 0.06,-12.62 0.08,-25.25 -0.02,-37.87 -0.02,-2.16 0.98,-2.37 2.7,-2.44 2.08,-0.08 2.96,0.51 2.91,2.78 -0.15,6.3 -0.06,12.62 -0.06,18.93 z"
   id="path50"
   inkscape:connector-curvature="0"
   style="fill:#020783" />
	<path
   class="st0"
   d="m 942.04,865.3 c -3.65,0 -7.3,-0.04 -10.95,0.02 -1.87,0.03 -3.14,-0.21 -3.19,-2.63 -0.05,-2.31 0.89,-2.8 2.93,-2.78 7.3,0.07 14.6,0.04 21.9,0.02 1.76,0 3.13,0.01 3.17,2.54 0.04,2.74 -1.38,2.88 -3.41,2.84 -3.48,-0.05 -6.97,-0.01 -10.45,-0.01 z"
   id="path52"
   inkscape:connector-curvature="0"
   style="fill:#020783" />
	<path
   class="st0"
   d="m 1407.44,865.3 c -3.64,0 -7.28,-0.11 -10.91,0.04 -2.36,0.09 -2.63,-1.09 -2.67,-3.04 -0.05,-2.16 1.06,-2.38 2.76,-2.38 7.44,0.04 14.89,0.07 22.33,-0.01 2.05,-0.02 2.47,0.89 2.45,2.7 -0.02,1.83 -0.55,2.75 -2.54,2.71 -3.81,-0.08 -7.62,-0.02 -11.42,-0.02 z"
   id="path54"
   inkscape:connector-curvature="0"
   style="fill:#020783" />
	<path
   class="st0"
   d="m 941.72,827.4 c -3.48,0 -6.97,-0.07 -10.45,0.03 -2.08,0.05 -3.38,-0.18 -3.38,-2.86 0,-2.57 1.33,-2.53 3.12,-2.52 7.3,0.03 14.59,0.07 21.89,-0.02 2.04,-0.02 2.96,0.42 2.88,2.74 -0.08,2.34 -1.16,2.72 -3.12,2.67 -3.64,-0.11 -7.29,-0.04 -10.94,-0.04 z"
   id="path56"
   inkscape:connector-curvature="0"
   style="fill:#020783" />
	<path
   class="st0"
   d="m 1407.57,827.4 c -3.64,0 -7.29,-0.11 -10.92,0.04 -2.23,0.09 -2.81,-0.79 -2.8,-2.89 0.01,-2 0.78,-2.54 2.63,-2.52 7.61,0.06 15.23,0.06 22.84,0.01 1.9,-0.01 2.52,0.69 2.58,2.61 0.07,2.27 -0.85,2.84 -2.9,2.78 -3.82,-0.1 -7.63,-0.03 -11.43,-0.03 z"
   id="path58"
   inkscape:connector-curvature="0"
   style="fill:#020783" />
	<path
   class="st0"
   d="m 939.28,840.19 c 2.66,0 5.32,0.03 7.99,-0.01 1.75,-0.03 3.24,-0.17 3.19,2.46 -0.05,2.33 -0.7,3.27 -3.14,3.21 -5.49,-0.13 -10.98,-0.08 -16.47,-0.02 -2.08,0.02 -2.9,-0.72 -2.95,-2.92 -0.05,-2.29 0.84,-2.84 2.9,-2.75 2.82,0.12 5.65,0.03 8.48,0.03 z"
   id="path60"
   inkscape:connector-curvature="0"
   style="fill:#020783" />
	<path
   class="st0"
   d="m 1405.31,840.19 c 2.65,0 5.3,0.11 7.94,-0.04 2.1,-0.12 2.92,0.51 2.86,2.75 -0.06,2.05 -0.53,2.99 -2.79,2.95 -5.62,-0.12 -11.25,-0.12 -16.87,-0.01 -2.43,0.05 -2.53,-1.26 -2.59,-3.12 -0.06,-1.93 0.56,-2.65 2.52,-2.56 2.97,0.12 5.95,0.03 8.93,0.03 z"
   id="path62"
   inkscape:connector-curvature="0"
   style="fill:#020783" />
	<path
   class="st2"
   d="m 1399.18,532.56 c -14.14,-2.03 -28.29,-4.03 -42.42,-6.09 -3.53,-0.52 -4.65,-4 -6.97,-6.01 -3.81,-3.28 0.2,-5.4 1.51,-7.42 14.95,-22.99 30.58,-45.51 47.44,-67.16 2.2,-2.82 3.33,-3.4 6.39,-1.01 15.46,12.09 31.07,24 46.79,35.75 3.17,2.37 3.7,3.65 0.6,6.62 -15.02,14.42 -30.25,28.62 -45.73,42.54 -2.25,2.02 -4.48,3.41 -7.61,2.78 z M 1399,492.47 c -0.22,-0.25 -0.44,-0.5 -0.66,-0.75 -11.28,9.9 -22.56,19.81 -34.66,30.44 3.13,0.08 5.19,1.28 7,-0.58 9.45,-9.69 18.88,-19.41 28.32,-29.11 z"
   id="path64"
   inkscape:connector-curvature="0"
   style="fill:#fdfdfe" />
	<path
   class="st2"
   d="m 877.8,532.75 c -2.59,0.25 -4.41,-0.84 -6.28,-2.52 -15.67,-14.18 -31.24,-28.48 -46.41,-43.2 -2.72,-2.64 -2.79,-3.75 0.42,-6.13 16.01,-11.89 31.84,-24.03 47.58,-36.28 2.67,-2.08 3.78,-1.61 5.66,0.82 17.47,22.6 33.76,46.02 49.42,69.9 1.49,2.27 0.9,3.41 -0.37,5.48 -3.59,5.85 -9.26,6.01 -15.07,6.75 -11.67,1.5 -23.3,3.43 -34.95,5.18 z m 5.32,-37.44 c -0.3,-0.95 -0.9,-1.08 -1.72,-0.64 0.32,0.45 0.65,0.89 0.97,1.34 7.85,8.15 15.79,16.21 23.49,24.49 2.36,2.54 4.58,2.2 8.09,1.27 -10.7,-9.19 -20.77,-17.82 -30.83,-26.46 z"
   id="path66"
   inkscape:connector-curvature="0"
   style="fill:#fdfdfe" />
	<path
   class="st0"
   d="m 1399,492.47 c -9.44,9.71 -18.87,19.42 -28.32,29.11 -1.82,1.86 -3.87,0.66 -7,0.58 12.11,-10.63 23.38,-20.53 34.66,-30.44 0.22,0.25 0.44,0.5 0.66,0.75 z"
   id="path68"
   inkscape:connector-curvature="0"
   style="fill:#020783" />
	<path
   class="st0"
   d="m 883.12,495.31 c 10.06,8.64 20.13,17.27 30.83,26.46 -3.51,0.94 -5.73,1.27 -8.09,-1.27 -7.7,-8.28 -15.64,-16.35 -23.49,-24.49 0.26,-0.23 0.5,-0.46 0.75,-0.7 z"
   id="path70"
   inkscape:connector-curvature="0"
   style="fill:#020783" />
	<path
   class="st0"
   d="m 882.38,496.01 c -0.32,-0.45 -0.65,-0.89 -0.97,-1.34 0.82,-0.44 1.42,-0.31 1.72,0.64 -0.26,0.24 -0.5,0.47 -0.75,0.7 z"
   id="path72"
   inkscape:connector-curvature="0"
   style="fill:#020783" />
</g>
</svg>