<?xml version="1.0" encoding="UTF-8" standalone="no"?>
<!-- Generator: Adobe Illustrator 24.2.1, SVG Export Plug-In . SVG Version: 6.00 Build 0)  -->

<svg
   xmlns:dc="http://purl.org/dc/elements/1.1/"
   xmlns:cc="http://creativecommons.org/ns#"
   xmlns:rdf="http://www.w3.org/1999/02/22-rdf-syntax-ns#"
   xmlns:svg="http://www.w3.org/2000/svg"
   xmlns="http://www.w3.org/2000/svg"
   xmlns:sodipodi="http://sodipodi.sourceforge.net/DTD/sodipodi-0.dtd"
   xmlns:inkscape="http://www.inkscape.org/namespaces/inkscape"
   version="1.1"
   id="Calque_1"
   x="0px"
   y="0px"
   viewBox="0 0 348.81952 157.0826"
   xml:space="preserve"
   sodipodi:docname="logo_colored2.svg"
   inkscape:version="0.92.5 (2060ec1f9f, 2020-04-08)"
   width="348.81952"
   height="157.0826"><metadata
   id="metadata61"><rdf:RDF><cc:Work
       rdf:about=""><dc:format>image/svg+xml</dc:format><dc:type
         rdf:resource="http://purl.org/dc/dcmitype/StillImage" /><dc:title></dc:title></cc:Work></rdf:RDF></metadata><defs
   id="defs59" /><sodipodi:namedview
   pagecolor="#ffffff"
   bordercolor="#666666"
   borderopacity="1"
   objecttolerance="10"
   gridtolerance="10"
   guidetolerance="10"
   inkscape:pageopacity="0"
   inkscape:pageshadow="2"
   inkscape:window-width="1100"
   inkscape:window-height="717"
   id="namedview57"
   showgrid="false"
   inkscape:zoom="0.941931"
   inkscape:cx="202.16407"
   inkscape:cy="71.077534"
   inkscape:window-x="865"
   inkscape:window-y="175"
   inkscape:window-maximized="0"
   inkscape:current-layer="Calque_1"
   inkscape:pagecheckerboard="true" />
<style
   type="text/css"
   id="style2">
	.st0{fill:#030982;}
	.st1{fill:#161983;}
</style>
<g
   id="g54"
   transform="translate(-992.06781,-598.94)">
	<path
   class="st0"
   d="m 1136.07,677.29 c 0.08,23.58 -18.94,42.73 -42.56,42.84 -23.38,0.11 -42.64,-19 -42.97,-42.64 -0.32,-23.27 19.53,-43.19 42.95,-43.08 23.58,0.12 42.5,19.17 42.58,42.88 z m -42.71,17.94 c 9.9,0.01 18.15,-8.18 18.11,-17.97 -0.04,-9.72 -8.55,-18.15 -18.17,-18.01 -9.78,0.14 -17.76,8.18 -17.78,17.9 -0.04,10.06 7.87,18.07 17.84,18.08 z"
   id="path4"
   inkscape:connector-curvature="0"
   style="fill:#030982" />
	<path
   class="st0"
   d="m 1276.73,720.15 c -9.04,0 -18.2,-0.02 -27.37,0.02 -1.37,0 -1.96,-0.96 -2.62,-1.82 -4.29,-5.64 -8.51,-11.33 -12.84,-16.93 -1.06,-1.37 -1.5,-2.74 -1.48,-4.45 0.07,-5.85 0.19,-11.71 -0.04,-17.56 -0.11,-2.81 0.69,-3.74 3.51,-3.49 4.82,0.42 8.99,-0.79 10.98,-5.78 1.85,-4.64 -0.54,-9.9 -5.3,-11.52 -3.37,-1.14 -6.93,-0.62 -10.39,-0.49 -2.12,0.08 -1.34,2.06 -1.34,3.26 -0.05,14.94 -0.03,29.89 -0.03,44.83 0,3.86 -0.06,7.72 0.04,11.58 0.04,1.74 -0.49,2.42 -2.33,2.39 -6.23,-0.09 -12.47,-0.1 -18.7,0 -1.98,0.03 -2.6,-0.64 -2.56,-2.57 0.1,-5.1 0.03,-10.21 0.03,-15.32 0,-21.42 0.05,-42.84 -0.07,-64.26 -0.02,-2.89 0.67,-3.84 3.67,-3.71 11.19,0.5 22.46,-0.92 33.6,0.75 13.69,2.05 22.66,10.25 26.32,23.3 3.54,12.62 0.07,23.89 -9.8,32.78 -2.02,1.82 -2.26,2.81 -0.52,4.99 5.65,7.1 11.05,14.41 16.52,21.66 0.39,0.55 1.13,1.03 0.72,2.34 z"
   id="path6"
   inkscape:connector-curvature="0"
   style="fill:#030982" />
	<path
   class="st0"
   d="m 1298.58,720.15 c -5.24,0.01 -10.48,-0.08 -15.71,0.05 -2.1,0.05 -2.84,-0.59 -2.8,-2.74 0.12,-5.98 0.15,-11.96 -0.02,-17.93 -0.07,-2.48 0.71,-3.15 3.17,-3.12 9.72,0.14 19.45,0.05 29.17,0.06 2.16,0 4.02,-0.4 4.58,-2.87 0.6,-2.7 -1,-4.34 -4.41,-4.53 -5.2,-0.28 -10.42,0.47 -15.62,-0.8 -12.42,-3.02 -21.55,-14.45 -21.18,-26.83 0.39,-13.12 9.54,-23.99 22.22,-26.35 7.54,-1.4 15.17,-0.46 22.76,-0.67 4.49,-0.12 8.98,0.07 13.46,-0.06 2,-0.06 2.53,0.62 2.5,2.56 -0.11,6.1 -0.16,12.21 0.02,18.31 0.07,2.44 -0.86,2.88 -3.04,2.86 -9.47,-0.1 -18.95,-0.06 -28.43,-0.02 -1.23,0 -2.55,0.03 -3.66,0.46 -1.51,0.58 -2.34,2.01 -2.11,3.6 0.33,2.31 2.11,3.37 4.24,3.5 2.86,0.18 5.74,0.18 8.6,0.04 15.69,-0.79 28.03,11.52 28.55,26.37 0.54,15.31 -11.61,27.63 -27.33,28.09 -4.98,0.14 -9.97,0.02 -14.96,0.02 z"
   id="path8"
   inkscape:connector-curvature="0"
   style="fill:#030982" />
	<path
   class="st0"
   d="m 1203.48,664.06 c 0,7.84 0.01,15.69 0,23.53 -0.02,17.84 -13.7,31.88 -31.67,32.52 -16.83,0.6 -32.08,-12.86 -32.94,-30.08 -0.71,-14.16 -0.26,-28.38 -0.32,-42.57 -0.01,-3.36 0.17,-6.74 -0.06,-10.08 -0.18,-2.59 0.85,-3.1 3.19,-3.03 5.85,0.15 11.72,0.21 17.57,-0.02 2.76,-0.11 3.21,0.87 3.19,3.36 -0.11,16.19 -0.06,32.37 -0.06,48.56 0,6.27 3.11,10.04 8.37,10.19 5.68,0.15 9.3,-3.63 9.34,-10.19 0.09,-16.06 0.1,-32.13 -0.04,-48.19 -0.02,-2.84 0.56,-3.9 3.63,-3.74 5.35,0.28 10.73,0.29 16.07,0 3.25,-0.18 3.86,0.99 3.79,3.97 -0.19,8.59 -0.06,17.18 -0.06,25.77 z"
   id="path10"
   inkscape:connector-curvature="0"
   style="fill:#030982" />
	<path
   class="st0"
   d="m 1033.9,689.14 c 0,9.21 -0.12,18.42 0.07,27.63 0.06,2.9 -0.86,3.56 -3.59,3.45 -5.47,-0.21 -10.97,-0.23 -16.44,0 -2.82,0.12 -3.54,-0.72 -3.51,-3.51 0.13,-18.05 -0.08,-36.09 0.18,-54.14 0.06,-4 -1.2,-4.9 -4.83,-4.6 -3.59,0.3 -7.23,-0.08 -10.83,0.11 -2.43,0.13 -2.92,-0.88 -2.88,-3.05 0.12,-5.97 0.11,-11.95 0,-17.92 -0.04,-2.06 0.53,-2.78 2.71,-2.77 18.31,0.08 36.63,0.07 54.94,0.01 1.9,-0.01 2.63,0.47 2.59,2.5 -0.12,6.22 -0.11,12.45 -0.01,18.67 0.03,1.97 -0.62,2.6 -2.57,2.55 -4.23,-0.12 -8.48,0.1 -12.7,-0.09 -2.47,-0.11 -3.22,0.69 -3.19,3.15 0.13,9.34 0.06,18.68 0.06,28.01 z"
   id="path12"
   inkscape:connector-curvature="0"
   style="fill:#030982" />
	<path
   class="st1"
   d="m 1167.26,728.81 c 7.36,-0.03 13.67,6.16 13.7,13.44 0.03,7.34 -6.08,13.62 -13.4,13.77 -7.43,0.15 -13.97,-6.24 -13.97,-13.64 0,-7.25 6.34,-13.54 13.67,-13.57 z m -0.1,3.6 c -5.41,0.03 -9.89,4.57 -9.88,10.02 0.01,5.29 4.71,10.01 9.98,10.05 5.5,0.04 10.02,-4.65 9.95,-10.33 -0.06,-5.47 -4.5,-9.77 -10.05,-9.74 z"
   id="path14"
   inkscape:connector-curvature="0"
   style="fill:#161983" />
	<path
   class="st1"
   d="m 1264.09,741.87 c 0.33,7.5 -5.72,13.9 -13.36,14.13 -7.15,0.22 -13.47,-5.71 -13.76,-12.9 -0.3,-7.58 5.3,-13.85 12.72,-14.26 7.64,-0.4 14.06,5.4 14.4,13.03 z m -3.57,0.58 c 0.02,-5.42 -4.41,-9.93 -9.88,-10.04 -5.52,-0.12 -10.02,4.22 -10.1,9.73 -0.08,5.69 4.43,10.37 9.97,10.34 5.28,-0.03 9.99,-4.75 10.01,-10.03 z"
   id="path16"
   inkscape:connector-curvature="0"
   style="fill:#161983" />
	<path
   class="st1"
   d="m 1254.42,599.17 c 7.72,-0.88 13.54,6.61 13.43,13.28 -0.13,7.36 -6.32,13.54 -13.63,13.52 -7.48,-0.02 -13.52,-6.24 -13.5,-13.9 0.01,-7.53 5.75,-12.92 13.7,-12.9 z m -10.08,13.06 c -0.01,5.61 4.23,10.01 9.75,10.12 5.46,0.11 10.32,-4.72 10.22,-10.17 -0.09,-5.32 -4.83,-10.01 -10.09,-9.98 -5.42,0.03 -9.87,4.54 -9.88,10.03 z"
   id="path18"
   inkscape:connector-curvature="0"
   style="fill:#161983" />
	<path
   class="st1"
   d="m 1331.26,615.64 c 0,-4.42 -0.06,-8.85 0.04,-13.27 0.02,-1.15 -0.84,-2.96 1.52,-3.06 2.38,-0.1 1.68,1.69 1.69,2.87 0.05,7.33 0.03,14.67 0.03,21.86 -5.52,-5.33 -11.05,-10.68 -17.39,-16.81 0,5.82 0.02,10.58 -0.01,15.35 -0.01,1.28 0.47,2.85 -1.82,2.83 -2.37,-0.02 -1.69,-1.69 -1.7,-2.89 -0.05,-7.44 -0.02,-14.88 -0.02,-22.43 5.49,5.57 10.82,10.97 16.15,16.38 0.49,-0.28 1,-0.56 1.51,-0.83 z"
   id="path20"
   inkscape:connector-curvature="0"
   style="fill:#161983" />
	<path
   class="st1"
   d="m 996.11,754.67 c -1.47,0.99 -2.97,1.64 -2.99,-1.04 -0.08,-7.93 -0.03,-15.86 -0.03,-24.6 4.05,3.64 7.61,6.68 10.95,9.92 1.42,1.38 2.2,1.22 3.54,-0.08 3.3,-3.2 6.78,-6.2 10.21,-9.3 1.35,0.82 0.71,2.06 0.72,3.04 0.07,6.73 0.05,13.45 0.02,20.18 0,1.17 0.4,2.57 -1.63,2.67 -2.29,0.11 -1.89,-1.43 -1.89,-2.74 -0.02,-4.97 -0.01,-9.93 -0.01,-15.3 -2.7,1.21 -4.46,3.13 -6.13,4.94 -2.2,2.38 -3.65,2.7 -6.15,0.15 -1.86,-1.89 -3.4,-4.59 -6.52,-5 -1.25,5.72 -1.1,11.44 -0.09,17.16 z"
   id="path22"
   inkscape:connector-curvature="0"
   style="fill:#161983" />
	<path
   class="st1"
   d="m 1195.04,625.05 c -2.41,0.75 -3.66,0.26 -4.42,-1.86 -0.83,-2.32 -2.23,-4.45 -3.06,-6.77 -0.89,-2.47 -2.22,-5.16 2.02,-6.36 1.67,-0.47 2.53,-2.38 2.03,-4.35 -0.48,-1.88 -1.72,-2.85 -3.73,-3.05 -6.57,-0.66 -6.68,-0.59 -6.68,5.88 0,4.85 0.01,9.7 -0.02,14.54 -0.01,1.02 0.41,2.27 -1.49,2.29 -1.86,0.02 -1.93,-1 -1.92,-2.37 0.03,-7.09 0.07,-14.17 -0.03,-21.26 -0.03,-1.97 0.62,-2.62 2.57,-2.51 2.6,0.15 5.23,0.01 7.84,0.09 3.38,0.1 5.64,1.92 6.65,5.04 0.96,2.96 0.41,6.01 -2.25,7.64 -2.76,1.7 -2.07,3.37 -1.06,5.47 1.18,2.46 2.32,4.94 3.55,7.58 z"
   id="path24"
   inkscape:connector-curvature="0"
   style="fill:#161983" />
	<path
   class="st1"
   d="m 1133.26,755.04 c -2.47,0.91 -3.68,0.19 -4.46,-1.8 -0.82,-2.08 -1.91,-4.04 -2.79,-6.09 -1.21,-2.83 -2.83,-5.52 1.87,-7.2 3.01,-1.08 2.71,-5.43 -0.26,-6.83 -2.21,-1.04 -4.67,-0.7 -7.01,-0.48 -1.64,0.15 -1.14,1.68 -1.15,2.7 -0.04,5.73 0,11.45 -0.04,17.18 -0.01,1.22 0.6,2.94 -1.74,2.9 -2.35,-0.04 -1.63,-1.78 -1.64,-2.97 -0.05,-6.72 0.05,-13.45 -0.07,-20.17 -0.04,-2.15 0.34,-3.23 2.82,-3.01 2.6,0.23 5.23,-0.02 7.84,0.12 3.2,0.17 5.45,1.98 6.32,4.94 0.89,3.02 0.54,6.22 -2.41,7.97 -2.46,1.46 -2.08,2.85 -1.07,4.83 1.34,2.53 2.49,5.14 3.79,7.91 z"
   id="path26"
   inkscape:connector-curvature="0"
   style="fill:#161983" />
	<path
   class="st1"
   d="m 1020.8,625.05 c -2.81,0.96 -4.3,0.03 -4.98,-2.49 -0.54,-1.98 -1.9,-2.65 -3.94,-2.48 -1.85,0.16 -3.74,0.16 -5.59,0 -3.07,-0.26 -5.62,0.12 -6.59,3.66 -0.6,2.2 -2.43,1.57 -4.68,1.62 4.46,-8.81 8.72,-17.22 13.38,-26.42 4.31,9.09 8.3,17.48 12.4,26.11 z m -12.47,-18.31 c -1.6,3.17 -2.82,5.69 -4.12,8.16 -0.85,1.61 -0.12,1.91 1.32,1.87 1.73,-0.05 3.46,-0.05 5.18,-0.01 1.57,0.04 2.42,-0.2 1.44,-2.05 -1.27,-2.37 -2.34,-4.86 -3.82,-7.97 z"
   id="path28"
   inkscape:connector-curvature="0"
   style="fill:#161983" />
	<path
   class="st1"
   d="m 1201.45,742.38 c 0,-3.6 -0.01,-7.2 0.01,-10.8 0.01,-0.94 -0.26,-2.22 1.26,-2.19 3.09,0.06 6.24,-0.53 9.26,0.38 3.16,0.95 5.31,4.28 5.04,7.45 -0.31,3.63 -3.07,6.46 -6.7,6.85 -5.41,0.59 -5.2,0.6 -5.53,5.94 -0.11,1.76 1.99,5.27 -1.72,5.22 -3.15,-0.04 -1.34,-3.29 -1.55,-5.05 -0.29,-2.56 -0.07,-5.19 -0.07,-7.8 z m 3.48,-5.77 c 0.25,1.71 -1.17,4.53 2.87,4.25 2.87,-0.2 5.33,-0.59 5.6,-4.02 0.23,-2.83 -1.82,-4.04 -5.73,-4.27 -3.36,-0.21 -2.74,1.92 -2.74,4.04 z"
   id="path30"
   inkscape:connector-curvature="0"
   style="fill:#161983" />
	<path
   class="st1"
   d="m 1082.07,599.58 c -0.58,1.46 -1.04,2.75 -1.6,4 -3.22,7.13 -6.46,14.25 -10.01,22.09 -2.59,-5.66 -4.95,-10.78 -7.28,-15.9 -1.18,-2.6 -2.38,-5.19 -3.45,-7.84 -0.31,-0.77 -1.62,-1.89 -0.18,-2.46 1.13,-0.45 2.63,-0.57 3.41,1.23 1.83,4.21 3.84,8.35 5.82,12.5 0.47,0.98 0.53,2.2 1.93,3.05 2.22,-4.8 4.56,-9.49 6.55,-14.33 0.95,-2.33 2.23,-3.09 4.81,-2.34 z"
   id="path32"
   inkscape:connector-curvature="0"
   style="fill:#161983" />
	<path
   class="st1"
   d="m 1084.57,743.75 c 0,-2.74 -0.14,-5.48 0.04,-8.2 0.15,-2.28 -0.59,-2.97 -2.9,-3.03 -1.64,-0.04 -4.76,1.51 -4.76,-1.47 0,-3.35 3.24,-1.46 4.95,-1.6 3.83,-0.3 7.71,-0.1 11.57,-0.09 1.2,0 2.6,-0.35 2.54,1.68 -0.05,1.72 -1.2,1.52 -2.33,1.59 -5.44,0.32 -5.44,0.33 -5.44,5.85 0,4.85 -0.01,9.7 0,14.55 0,1.26 0.2,2.46 -1.78,2.45 -1.88,-0.01 -1.91,-1.05 -1.9,-2.4 0.04,-3.11 0.01,-6.22 0.01,-9.33 z"
   id="path34"
   inkscape:connector-curvature="0"
   style="fill:#161983" />
	<path
   class="st1"
   d="m 1284.68,742.08 c 0,-3.48 0.03,-6.96 -0.01,-10.43 -0.01,-1.41 0.17,-2.37 1.99,-2.32 1.81,0.05 1.56,1.22 1.56,2.29 0.02,5.96 0.12,11.93 -0.04,17.89 -0.06,2.15 0.57,2.88 2.69,2.73 2.1,-0.15 4.23,-0.01 6.34,-0.04 1.12,-0.02 1.57,0.49 1.51,1.58 -0.05,0.96 -0.28,1.66 -1.48,1.65 -3.61,-0.04 -7.21,-0.05 -10.82,0 -1.96,0.03 -1.75,-1.31 -1.75,-2.54 0,-3.61 0,-7.21 0.01,-10.81 z"
   id="path36"
   inkscape:connector-curvature="0"
   style="fill:#161983" />
	<path
   class="st1"
   d="m 1128.72,612.28 c 0,-3.61 0.01,-7.22 -0.01,-10.83 0,-1.18 -0.05,-2.21 1.68,-2.17 1.73,0.04 1.63,1.14 1.63,2.27 0,7.22 0,14.44 0,21.66 0,1.18 0.03,2.2 -1.71,2.16 -1.77,-0.04 -1.6,-1.14 -1.6,-2.26 0.01,-3.61 0.01,-7.22 0.01,-10.83 z"
   id="path38"
   inkscape:connector-curvature="0"
   style="fill:#161983" />
	<path
   class="st1"
   d="m 1328.17,732.65 c -2.11,0 -4.22,-0.01 -6.33,0.01 -1.09,0.01 -1.98,-0.11 -2.01,-1.53 -0.02,-1.23 0.45,-1.8 1.74,-1.79 4.47,0.04 8.94,0.04 13.4,0 1.22,-0.01 1.78,0.39 1.78,1.7 0,1.41 -0.77,1.61 -1.89,1.6 -2.22,0 -4.46,0.01 -6.69,0.01 z"
   id="path40"
   inkscape:connector-curvature="0"
   style="fill:#161983" />
	<path
   class="st1"
   d="m 1328.26,755.43 c -2.24,0 -4.48,-0.01 -6.72,0.01 -1.01,0.01 -1.66,-0.26 -1.71,-1.43 -0.05,-1.25 0.45,-1.82 1.73,-1.82 4.48,0.03 8.96,0.02 13.44,0.01 1.11,0 1.53,0.51 1.49,1.61 -0.03,1.05 -0.38,1.63 -1.52,1.62 -2.23,-0.02 -4.47,0 -6.71,0 z"
   id="path42"
   inkscape:connector-curvature="0"
   style="fill:#161983" />
	<path
   class="st1"
   d="m 1047.76,732.65 c -2.12,0 -4.24,-0.02 -6.36,0.01 -1.2,0.02 -1.84,-0.36 -1.82,-1.71 0.02,-1.39 0.74,-1.61 1.9,-1.6 4.24,0.03 8.48,0.01 12.72,0.01 1.03,0 2,-0.04 2.04,1.47 0.05,1.6 -0.83,1.85 -2.12,1.83 -2.12,-0.03 -4.24,-0.01 -6.36,-0.01 z"
   id="path44"
   inkscape:connector-curvature="0"
   style="fill:#161983" />
	<path
   class="st0"
   d="m 1326.09,743.71 c -1.36,0 -2.73,-0.04 -4.09,0.01 -1.28,0.04 -2.14,-0.18 -2.14,-1.78 0,-1.51 0.94,-1.5 1.96,-1.5 3.22,0 6.44,0.04 9.66,-0.01 1.25,-0.02 1.74,0.41 1.72,1.71 -0.02,1.41 -0.79,1.6 -1.91,1.58 -1.73,-0.03 -3.47,-0.01 -5.2,-0.01 z"
   id="path46"
   inkscape:connector-curvature="0"
   style="fill:#030982" />
	<path
   class="st1"
   d="m 1047.72,755.43 c -2.1,0 -4.2,-0.03 -6.31,0.01 -1.16,0.02 -1.82,-0.26 -1.85,-1.62 -0.03,-1.41 0.68,-1.63 1.83,-1.62 4.33,0.03 8.65,0.02 12.98,0.01 1.11,0 1.89,0.22 1.89,1.61 0,1.39 -0.73,1.63 -1.87,1.62 -2.22,-0.03 -4.45,-0.01 -6.67,-0.01 z"
   id="path48"
   inkscape:connector-curvature="0"
   style="fill:#161983" />
	<path
   class="st0"
   d="m 1046.2,743.7 c -1.62,0 -3.24,-0.04 -4.86,0.01 -1.27,0.03 -1.75,-0.48 -1.74,-1.77 0.01,-1.19 0.57,-1.48 1.58,-1.48 3.36,0.01 6.73,0.03 10.09,0 1.21,-0.01 1.81,0.35 1.77,1.71 -0.04,1.46 -0.94,1.54 -1.99,1.54 -1.61,-0.01 -3.23,-0.01 -4.85,-0.01 z"
   id="path50"
   inkscape:connector-curvature="0"
   style="fill:#030982" />
	<path
   class="st0"
   d="m 996.11,754.67 c -1.01,-5.72 -1.16,-11.44 0.1,-17.16 -0.03,5.73 -0.07,11.45 -0.1,17.16 z"
   id="path52"
   inkscape:connector-curvature="0"
   style="fill:#030982" />
</g>
</svg>