<svg xmlns="http://www.w3.org/2000/svg" width="24mm" height="24mm" viewBox="0 0 24 24">
  <g fill="currentColor" fill-rule="evenodd" transform="matrix(0.41698157,0,0,0.41652743,-4.2000276,-6.426191)">
    <path d="M 35.331562,58.712653 C 25.454082,56.567817 20.475437,45.301138 25.503419,36.471557 30.830333,27.117027 44.497344,26.38897 50.733062,35.127546 58.73774,46.3451 48.757693,61.628057 35.331562,58.712653 Z m 11.337984,-6.373518 c 1.342007,-0.600755 1.545466,-0.809017 2.315104,-2.369765 1.06411,-2.157902 1.060969,-2.460643 -0.01609,-1.551427 -1.215327,1.025928 -2.799586,1.690484 -4.034896,1.69254 -2.104297,0.0035 -2.035889,-0.260771 0.840586,-3.247229 4.459754,-4.630274 4.662702,-7.715481 0.567738,-8.630754 -4.023101,-0.89921 -7.503967,1.381314 -8.566846,5.612655 -1.13661,4.524872 -5.873014,4.473694 -5.179602,-0.05597 0.826511,-5.399204 2.45257,-8.882383 4.146566,-8.882383 1.111684,0 1.222652,0.231202 0.781952,1.629184 -0.448654,1.423206 1.524807,2.113184 3.070987,1.073704 2.567628,-1.72619 0.676442,-4.076167 -3.086045,-3.834705 -4.937612,0.316876 -9.378095,4.167442 -9.827519,8.521934 -0.751906,7.285268 11.456686,8.106799 13.533763,0.910704 0.496615,-1.720541 1.040014,-2.311276 2.316628,-2.518443 1.016085,-0.164888 1.943267,0.470597 1.681578,1.152545 -0.08113,0.211418 -0.147508,0.554114 -0.147508,0.761547 0,0.207431 -2.17289,2.661391 -4.828645,5.453243 -2.655756,2.791851 -4.590521,4.97923 -4.29948,4.860843 1.02615,-0.417415 2.931152,-0.434541 4.7625,-0.04282 2.275115,0.486643 4.039669,0.328375 5.969225,-0.535402 z" />
    <path d="M 33.159696,72.371189 C 22.657817,70.039778 14.67102,62.8859 11.454443,52.92951 10.734788,50.701935 10.50362,50.834642 14.714849,51.057813 l 3.558882,0.1886 0.594565,1.434497 c 8.916234,21.512017 41.588378,14.823599 41.588378,-8.513691 0,-27.906646 -42.575216,-28.65595 -43.246205,-0.761114 l -0.05806,2.413887 -3.307292,1.88061 -3.307292,1.880608 -0.217893,-1.384077 c -1.1974336,-7.606194 2.078033,-18.347573 7.070441,-23.186405 0.744191,-0.721299 0.861945,-0.971991 0.630577,-1.342469 -0.959238,-1.535983 4.387819,-6.00077 5.946849,-4.965613 0.5125,0.340288 0.75116,0.293075 2.432679,-0.481245 7.780733,-3.582936 16.071365,-3.72164 24.007119,-0.401644 1.615469,0.675846 2.143061,0.792914 2.562294,0.568547 0.904671,-0.484164 1.33196,-0.330549 3.76755,1.354468 2.391733,1.654678 2.840384,2.266318 2.484615,3.387245 -0.139986,0.441059 0.102716,0.864786 1.109665,1.937325 C 78.77088,44.707593 59.519156,78.222973 33.1597,72.371189 Z"/>
  </g>
</svg>

